<svg height="251" viewBox="0 0 203 251" width="203" xmlns="http://www.w3.org/2000/svg" xmlns:xlink="http://www.w3.org/1999/xlink"><filter id="a"><feColorMatrix in="SourceGraphic" type="matrix" values="0 0 0 0 1.000000 0 0 0 0 1.000000 0 0 0 0 1.000000 0 0 0 1.000000 0"/></filter><g fill="none" fill-rule="evenodd" filter="url(#a)" transform="translate(3 3)"><g stroke="#b20000" stroke-width="6"><path d="m.58030391 0h196.18841309v149.976321c0 40.980889-32.372833 72.322116-97.1184989 94.023679-66.0466095-24.059236-99.06991419-55.400462-99.06991419-94.023679 0-22.416393 0-72.4085 0-149.976321z"/><path d="m.5 41.5h196" stroke-linecap="square"/></g><g fill="#b20000" fill-rule="nonzero" transform="translate(32 56)"><path d="m18.3828167.64948333-17.73333337 17.73333337c-.86534663.865608-.86534663 2.2687586 0 3.1343666l26.59999997 26.6c.4156089.4157345.9793349.6493578 1.5671834.6494834h12.3446166l43.5464167 46.0202166c-6.7564 3.1787-22.344 11.4113997-23.5653833 20.2869337-.3825897 3.375828 1.1496626 6.683167 3.9722666 8.574066 1.4218117 1.20551 3.2168106 1.882159 5.0806 1.9152.7668396-.002156 1.5290068-.11947 2.261-.348016 7.9423167-2.438334 14.3285334-18.12125 16.9264667-25.471717l3.5200667 3.719567-1.3699 1.3699c-.8653467.865608-.8653467 2.268758 0 3.134366l6.65 6.65c.865608.865347 2.2687583.865347 3.1343663 0l1.092817-1.092816 15.68735 16.574016c1.528034 1.594846 3.638864 2.499831 5.847567 2.507907h.095316c2.29854.031863 4.511152-.873539 6.127401-2.508193 1.61625-1.634653 2.496542-3.857375 2.437799-6.155397-.008154-2.212884-.916451-4.327175-2.515916-5.856433l-16.56515-15.676267 1.092816-1.092817c.865347-.865608.865347-2.2687583 0-3.1343663l-6.65-6.65c-.865608-.8653467-2.268758-.8653467-3.134366 0l-1.367684 1.3676833-54.6984663-51.7392167v-12.3446166c-.0001256-.5878485-.2337489-1.1515745-.6494834-1.5671834l-26.6-26.59999997c-.865608-.86534663-2.2687586-.86534663-3.1343666 0zm52.7721833 120.32731667c-1.1509607.360886-2.4071266.056438-3.26515-.79135-2.3984333-1.917417-2.4915333-3.489033-2.3518833-4.506483.7137666-5.187 10.7641333-11.772717 19.1475666-15.9600003-3.2984 8.8799663-8.7270166 19.7793163-13.5305333 21.2578333zm55.884383.32585c.731883.703408 1.143647 1.675939 1.139367 2.691033.017462 1.117185-.404419 2.196562-1.174833 3.0058-.824111.746723-1.893752 1.164798-3.0058 1.174887-1.011398.005355-1.980806-.40404-2.682167-1.13277l-15.769367-16.6516 4.843417-4.843417zm-20.639383-25.0682833 3.515633 3.5156333-10.165633 10.165633-3.5156333-3.515633zm-6.082533-.1884167-4.271517 4.271517-4.4976167-4.750317 4.0188167-4.0188167zm-53.7231337-50.82595 45.752 43.2826333-3.8437 3.8437-43.2826333-45.752zm-2.261-4.0210333-11.7328166-11.7328167-3.1343667 3.1343667 11.7328167 11.7328166h-11.4646l-24.38333337-24.3833333 14.59896667-14.59896667 24.3833333 24.38333337z"/><path d="m17.733634 12.3818266h4.4333333v6.2687333h-4.4333333z" transform="matrix(.70710678 -.70710678 .70710678 .70710678 -5.128297 18.651581)"/></g></g></svg>