<?xml version="1.0" encoding="UTF-8"?>
<svg width="447px" height="446px" viewBox="0 0 447 446" version="1.1" xmlns="http://www.w3.org/2000/svg" xmlns:xlink="http://www.w3.org/1999/xlink">
    <title>logo</title>
    <defs>
        <filter id="filter-1">
            <feColorMatrix in="SourceGraphic" type="matrix" values="0 0 0 0 0.643137 0 0 0 0 0.039216 0 0 0 0 0.058824 0 0 0 1.000000 0"></feColorMatrix>
        </filter>
        <filter id="filter-2">
            <feColorMatrix in="SourceGraphic" type="matrix" values="0 0 0 0 0.643137 0 0 0 0 0.039216 0 0 0 0 0.058824 0 0 0 1.000000 0"></feColorMatrix>
        </filter>
    </defs>
    <g id="logo" stroke="none" stroke-width="1" fill="none" fill-rule="evenodd">
        <g filter="url(#filter-1)">
            <g transform="translate(-15.000000, -15.000000)">
                <g id="ring">
                    <circle id="Oval" stroke="#FFFFFF" stroke-width="6" cx="238" cy="238" r="219"></circle>
                    <g id="ring-text">
                        <g id="extrinsic-motivation">
                            <ellipse id="Oval-Copy" transform="translate(238.693951, 237.998156) rotate(100.000000) translate(-238.693951, -237.998156) " cx="238.693951" cy="237.998156" rx="204.5" ry="206"></ellipse>
                            <text id="EXTRINSIC-MOTIVATION" transform="translate(381.500000, 227.500000) scale(1, -1) translate(-381.500000, -227.500000) " font-family="Clancy-Bold, Clancy" font-size="43" font-weight="bold" letter-spacing="7.8" fill="#FFFFFF">
                                <tspan x="37.643" y="244">EXTRINSIC  MOTIVATION</tspan>
                            </text>
                        </g>
                        <g id="University-of" transform="translate(65.000000, 64.000000)">
                            <circle id="Oval-Copy" transform="translate(173.000000, 173.000000) scale(-1, 1) translate(-173.000000, -173.000000) " cx="173" cy="173" r="173"></circle>
                            <text id="UNIVERSITY-OF" font-family="Clancy-Bold, Clancy" font-size="43" font-weight="bold" letter-spacing="7.8" fill="#FFFFFF">
                                <tspan x="107.267" y="105">UNIVERSITY OF</tspan>
                            </text>
                        </g>
                    </g>
                    <circle id="Oval-Copy-2" stroke="#FFFFFF" stroke-width="6" transform="translate(238.000000, 238.000000) scale(-1, 1) translate(-238.000000, -238.000000) " cx="238" cy="238" r="159"></circle>
                </g>
                <g id="logo_crest" transform="translate(139.000000, 133.000000)" filter="url(#filter-2)">
                    <g>
                        <g id="crest" stroke="#FFFFFF" stroke-width="6">
                            <path d="M0.580303914,0 L196.768717,0 C196.768717,77.096832 196.768717,127.088939 196.768717,149.976321 C196.768717,190.95721 164.395884,222.298437 99.6502181,244 C33.6036086,219.940764 0.580303914,188.599538 0.580303914,149.976321 C0.580303914,127.559928 0.580303914,77.567821 0.580303914,0 Z" id="Path-2"></path>
                            <line x1="0.5" y1="41.5" x2="196.5" y2="41.5" id="Line" stroke-linecap="square"></line>
                        </g>
                        <g id="whip" transform="translate(32.000000, 56.000000)" fill="#FFFFFF" fill-rule="nonzero">
                            <g id="Group">
                                <path d="M18.3828167,0.649483333 L0.649483333,18.3828167 C-0.215863297,19.2484247 -0.215863297,20.6515753 0.649483333,21.5171833 L27.2494833,48.1171833 C27.6650922,48.5329178 28.2288182,48.7665411 28.8166667,48.7666667 L41.1612833,48.7666667 L84.7077,94.7868833 C77.9513,97.9655833 62.3637,106.198283 61.1423167,115.073817 C60.759727,118.449645 62.2919793,121.756984 65.1145833,123.647883 C66.536395,124.853393 68.3313939,125.530042 70.1951833,125.563083 C70.9620229,125.560927 71.7241901,125.443613 72.4561833,125.215067 C80.3985,122.776733 86.7847167,107.093817 89.38265,99.74335 L92.9027167,103.462917 L91.5328167,104.832817 C90.66747,105.698425 90.66747,107.101575 91.5328167,107.967183 L98.1828167,114.617183 C99.0484247,115.48253 100.451575,115.48253 101.317183,114.617183 L102.41,113.524367 L118.09735,130.098383 C119.625384,131.693229 121.736214,132.598214 123.944917,132.60629 L124.040233,132.60629 C126.338773,132.638153 128.551385,131.732751 130.167634,130.098097 C131.783884,128.463444 132.664176,126.240722 132.605433,123.9427 C132.597279,121.729816 131.688982,119.615525 130.089517,118.086267 L113.524367,102.41 L114.617183,101.317183 C115.48253,100.451575 115.48253,99.0484247 114.617183,98.1828167 L107.967183,91.5328167 C107.101575,90.66747 105.698425,90.66747 104.832817,91.5328167 L103.465133,92.9005 L48.7666667,41.1612833 L48.7666667,28.8166667 C48.7665411,28.2288182 48.5329178,27.6650922 48.1171833,27.2494833 L21.5171833,0.649483333 C20.6515753,-0.215863297 19.2484247,-0.215863297 18.3828167,0.649483333 Z M71.155,120.9768 C70.0040393,121.337686 68.7478734,121.033238 67.88985,120.18545 C65.4914167,118.268033 65.3983167,116.696417 65.5379667,115.678967 C66.2517333,110.491967 76.3021,103.90625 84.6855333,99.7189667 C81.3871333,108.598933 75.9585167,119.498283 71.155,120.9768 Z M127.039383,121.30265 C127.771266,122.006058 128.18303,122.978589 128.17875,123.993683 C128.196212,125.110868 127.774331,126.190245 127.003917,126.999483 C126.179806,127.746206 125.110165,128.164281 123.998117,128.17437 C122.986719,128.179725 122.017311,127.77033 121.31595,127.0416 L105.546583,110.39 L110.39,105.546583 L127.039383,121.30265 Z M106.4,96.2343667 L109.915633,99.75 L99.75,109.915633 L96.2343667,106.4 L106.4,96.2343667 Z M100.317467,96.04595 L96.04595,100.317467 L91.5483333,95.56715 L95.56715,91.5483333 L100.317467,96.04595 Z M46.5943333,45.22 L92.3463333,88.5026333 L88.5026333,92.3463333 L45.22,46.5943333 L46.5943333,45.22 Z M44.3333333,41.1989667 L32.6005167,29.46615 L29.46615,32.6005167 L41.1989667,44.3333333 L29.7343667,44.3333333 L5.35103333,19.95 L19.95,5.35103333 L44.3333333,29.7343667 L44.3333333,41.1989667 Z" id="Shape"></path>
                                <polygon id="Rectangle" transform="translate(19.950301, 15.516193) rotate(-45.000000) translate(-19.950301, -15.516193) " points="17.733634 12.3818266 22.1669673 12.3818266 22.1669673 18.6505599 17.733634 18.6505599"></polygon>
                            </g>
                        </g>
                    </g>
                </g>
            </g>
        </g>
    </g>
</svg>